# MagicaVoxel @ Ephtracy

# group
o 

# material
mtllib Environment_UntiledLabs_Furniture-0.mtl
usemtl palette

# normals
vn -1 0 0
vn 1 0 0
vn 0 0 1
vn 0 0 -1
vn 0 -1 0
vn 0 1 0

# texcoords
vt 0.0136719 0.5
vt 0.0214844 0.5
vt 0.0605469 0.5

# verts
v -1.3 0 2
v -1.3 0 -1.6
v -1.3 3 2
v -1.3 3 -1.6
v -1.2 0 -1.6
v -1.2 0 -1.7
v -1.2 3 -1.6
v -1.2 3 -1.7
v -1.1 0 -1.7
v -1.1 0 -1.8
v -1.1 3 -1.7
v -1.1 3 -1.8
v -1 0.1 -1.8
v -1 0.1 -1.9
v -1 0.6 -1.8
v -1 0.6 -1.9
v -1 0.7 -1.8
v -1 0.7 -1.9
v -1 1.3 -1.8
v -1 1.3 -1.9
v -1 1.4 -1.8
v -1 1.4 -1.9
v -1 2 -1.8
v -1 2 -1.9
v -1 2.1 -1.8
v -1 2.1 -1.9
v -1 2.7 -1.8
v -1 2.7 -1.9
v -0.2 0.4 -1.9
v -0.2 0.4 -2
v -0.2 0.5 -1.9
v -0.2 0.5 -2
v -0.2 1.1 -1.9
v -0.2 1.1 -2
v -0.2 1.2 -1.9
v -0.2 1.2 -2
v -0.2 1.8 -1.9
v -0.2 1.8 -2
v -0.2 1.9 -1.9
v -0.2 1.9 -2
v -0.2 2.5 -1.9
v -0.2 2.5 -2
v -0.2 2.6 -1.9
v -0.2 2.6 -2
v 0.2 0.4 -1.9
v 0.2 0.4 -2
v 0.2 0.5 -1.9
v 0.2 0.5 -2
v 0.2 1.1 -1.9
v 0.2 1.1 -2
v 0.2 1.2 -1.9
v 0.2 1.2 -2
v 0.2 1.8 -1.9
v 0.2 1.8 -2
v 0.2 1.9 -1.9
v 0.2 1.9 -2
v 0.2 2.5 -1.9
v 0.2 2.5 -2
v 0.2 2.6 -1.9
v 0.2 2.6 -2
v 1 0.1 -1.8
v 1 0.1 -1.9
v 1 0.6 -1.8
v 1 0.6 -1.9
v 1 0.7 -1.8
v 1 0.7 -1.9
v 1 1.3 -1.8
v 1 1.3 -1.9
v 1 1.4 -1.8
v 1 1.4 -1.9
v 1 2 -1.8
v 1 2 -1.9
v 1 2.1 -1.8
v 1 2.1 -1.9
v 1 2.7 -1.8
v 1 2.7 -1.9
v 1.1 0 -1.7
v 1.1 0 -1.8
v 1.1 3 -1.7
v 1.1 3 -1.8
v 1.2 0 -1.6
v 1.2 0 -1.7
v 1.2 3 -1.6
v 1.2 3 -1.7
v 1.3 0 2
v 1.3 0 -1.6
v 1.3 3 2
v 1.3 3 -1.6
v -1.3 0 2
v -1.3 3 2
v 1.3 0 2
v 1.3 3 2
v -1.3 0 -1.6
v -1.3 3 -1.6
v -1.2 0 -1.6
v -1.2 3 -1.6
v 1.2 0 -1.6
v 1.2 3 -1.6
v 1.3 0 -1.6
v 1.3 3 -1.6
v -1.2 0 -1.7
v -1.2 3 -1.7
v -1.1 0 -1.7
v -1.1 3 -1.7
v 1.1 0 -1.7
v 1.1 3 -1.7
v 1.2 0 -1.7
v 1.2 3 -1.7
v -1.1 0 -1.8
v -1.1 3 -1.8
v -1 0.1 -1.8
v -1 0.6 -1.8
v -1 0.7 -1.8
v -1 1.3 -1.8
v -1 1.4 -1.8
v -1 2 -1.8
v -1 2.1 -1.8
v -1 2.7 -1.8
v 1 0.1 -1.8
v 1 0.6 -1.8
v 1 0.7 -1.8
v 1 1.3 -1.8
v 1 1.4 -1.8
v 1 2 -1.8
v 1 2.1 -1.8
v 1 2.7 -1.8
v 1.1 0 -1.8
v 1.1 3 -1.8
v -1 0.1 -1.9
v -1 0.6 -1.9
v -1 0.7 -1.9
v -1 1.3 -1.9
v -1 1.4 -1.9
v -1 2 -1.9
v -1 2.1 -1.9
v -1 2.7 -1.9
v -0.2 0.4 -1.9
v -0.2 0.5 -1.9
v -0.2 1.1 -1.9
v -0.2 1.2 -1.9
v -0.2 1.8 -1.9
v -0.2 1.9 -1.9
v -0.2 2.5 -1.9
v -0.2 2.6 -1.9
v 0.2 0.4 -1.9
v 0.2 0.5 -1.9
v 0.2 1.1 -1.9
v 0.2 1.2 -1.9
v 0.2 1.8 -1.9
v 0.2 1.9 -1.9
v 0.2 2.5 -1.9
v 0.2 2.6 -1.9
v 1 0.1 -1.9
v 1 0.6 -1.9
v 1 0.7 -1.9
v 1 1.3 -1.9
v 1 1.4 -1.9
v 1 2 -1.9
v 1 2.1 -1.9
v 1 2.7 -1.9
v -0.2 0.4 -2
v -0.2 0.5 -2
v -0.2 1.1 -2
v -0.2 1.2 -2
v -0.2 1.8 -2
v -0.2 1.9 -2
v -0.2 2.5 -2
v -0.2 2.6 -2
v 0.2 0.4 -2
v 0.2 0.5 -2
v 0.2 1.1 -2
v 0.2 1.2 -2
v 0.2 1.8 -2
v 0.2 1.9 -2
v 0.2 2.5 -2
v 0.2 2.6 -2
v -1.3 0 2
v 1.3 0 2
v -1.3 0 -1.6
v -1.2 0 -1.6
v 1.2 0 -1.6
v 1.3 0 -1.6
v -1.2 0 -1.7
v -1.1 0 -1.7
v 1.1 0 -1.7
v 1.2 0 -1.7
v -1.1 0 -1.8
v 1.1 0 -1.8
v -1 0.1 -1.8
v 1 0.1 -1.8
v -1 0.1 -1.9
v 1 0.1 -1.9
v -0.2 0.4 -1.9
v 0.2 0.4 -1.9
v -0.2 0.4 -2
v 0.2 0.4 -2
v -1 0.7 -1.8
v 1 0.7 -1.8
v -1 0.7 -1.9
v 1 0.7 -1.9
v -0.2 1.1 -1.9
v 0.2 1.1 -1.9
v -0.2 1.1 -2
v 0.2 1.1 -2
v -1 1.4 -1.8
v 1 1.4 -1.8
v -1 1.4 -1.9
v 1 1.4 -1.9
v -0.2 1.8 -1.9
v 0.2 1.8 -1.9
v -0.2 1.8 -2
v 0.2 1.8 -2
v -1 2.1 -1.8
v 1 2.1 -1.8
v -1 2.1 -1.9
v 1 2.1 -1.9
v -0.2 2.5 -1.9
v 0.2 2.5 -1.9
v -0.2 2.5 -2
v 0.2 2.5 -2
v -0.2 0.5 -1.9
v 0.2 0.5 -1.9
v -0.2 0.5 -2
v 0.2 0.5 -2
v -1 0.6 -1.8
v 1 0.6 -1.8
v -1 0.6 -1.9
v 1 0.6 -1.9
v -0.2 1.2 -1.9
v 0.2 1.2 -1.9
v -0.2 1.2 -2
v 0.2 1.2 -2
v -1 1.3 -1.8
v 1 1.3 -1.8
v -1 1.3 -1.9
v 1 1.3 -1.9
v -0.2 1.9 -1.9
v 0.2 1.9 -1.9
v -0.2 1.9 -2
v 0.2 1.9 -2
v -1 2 -1.8
v 1 2 -1.8
v -1 2 -1.9
v 1 2 -1.9
v -0.2 2.6 -1.9
v 0.2 2.6 -1.9
v -0.2 2.6 -2
v 0.2 2.6 -2
v -1 2.7 -1.8
v 1 2.7 -1.8
v -1 2.7 -1.9
v 1 2.7 -1.9
v -1.3 3 2
v 1.3 3 2
v -1 3 1.8
v 1 3 1.8
v -1.1 3 1.7
v -1 3 1.7
v 1 3 1.7
v 1.1 3 1.7
v -1.1 3 1
v -1 3 1
v 1 3 1
v 1.1 3 1
v -1 3 0.9
v 1 3 0.9
v -1 3 0.7
v 1 3 0.7
v -1.1 3 0.6
v -1 3 0.6
v 1 3 0.6
v 1.1 3 0.6
v -1.1 3 -1.5
v -1 3 -1.5
v 1 3 -1.5
v 1.1 3 -1.5
v -1.3 3 -1.6
v -1.2 3 -1.6
v -1 3 -1.6
v 1 3 -1.6
v 1.2 3 -1.6
v 1.3 3 -1.6
v -1.2 3 -1.7
v -1.1 3 -1.7
v 1.1 3 -1.7
v 1.2 3 -1.7
v -1.1 3 -1.8
v 1.1 3 -1.8

# faces
f 3/3/1 2/3/1 1/3/1
f 4/3/1 2/3/1 3/3/1
f 7/3/1 6/3/1 5/3/1
f 8/3/1 6/3/1 7/3/1
f 11/3/1 10/3/1 9/3/1
f 12/3/1 10/3/1 11/3/1
f 15/2/1 14/2/1 13/2/1
f 16/2/1 14/2/1 15/2/1
f 19/2/1 18/2/1 17/2/1
f 20/2/1 18/2/1 19/2/1
f 23/2/1 22/2/1 21/2/1
f 24/2/1 22/2/1 23/2/1
f 27/2/1 26/2/1 25/2/1
f 28/2/1 26/2/1 27/2/1
f 31/1/1 30/1/1 29/1/1
f 32/1/1 30/1/1 31/1/1
f 35/1/1 34/1/1 33/1/1
f 36/1/1 34/1/1 35/1/1
f 39/1/1 38/1/1 37/1/1
f 40/1/1 38/1/1 39/1/1
f 43/1/1 42/1/1 41/1/1
f 44/1/1 42/1/1 43/1/1
f 45/1/2 46/1/2 47/1/2
f 47/1/2 46/1/2 48/1/2
f 49/1/2 50/1/2 51/1/2
f 51/1/2 50/1/2 52/1/2
f 53/1/2 54/1/2 55/1/2
f 55/1/2 54/1/2 56/1/2
f 57/1/2 58/1/2 59/1/2
f 59/1/2 58/1/2 60/1/2
f 61/2/2 62/2/2 63/2/2
f 63/2/2 62/2/2 64/2/2
f 65/2/2 66/2/2 67/2/2
f 67/2/2 66/2/2 68/2/2
f 69/2/2 70/2/2 71/2/2
f 71/2/2 70/2/2 72/2/2
f 73/2/2 74/2/2 75/2/2
f 75/2/2 74/2/2 76/2/2
f 77/3/2 78/3/2 79/3/2
f 79/3/2 78/3/2 80/3/2
f 81/3/2 82/3/2 83/3/2
f 83/3/2 82/3/2 84/3/2
f 85/3/2 86/3/2 87/3/2
f 87/3/2 86/3/2 88/3/2
f 91/3/3 90/3/3 89/3/3
f 92/3/3 90/3/3 91/3/3
f 93/3/4 94/3/4 95/3/4
f 95/3/4 94/3/4 96/3/4
f 97/3/4 98/3/4 99/3/4
f 99/3/4 98/3/4 100/3/4
f 101/3/4 102/3/4 103/3/4
f 103/3/4 102/3/4 104/3/4
f 105/3/4 106/3/4 107/3/4
f 107/3/4 106/3/4 108/3/4
f 109/3/4 110/3/4 111/3/4
f 111/3/4 110/3/4 112/3/4
f 112/3/4 110/3/4 113/3/4
f 113/3/4 110/3/4 114/3/4
f 114/3/4 110/3/4 115/3/4
f 115/3/4 110/3/4 116/3/4
f 116/3/4 110/3/4 117/3/4
f 117/3/4 110/3/4 118/3/4
f 109/3/4 111/3/4 119/3/4
f 112/3/4 113/3/4 120/3/4
f 120/3/4 113/3/4 121/3/4
f 114/3/4 115/3/4 122/3/4
f 122/3/4 115/3/4 123/3/4
f 116/3/4 117/3/4 124/3/4
f 124/3/4 117/3/4 125/3/4
f 118/3/4 110/3/4 126/3/4
f 124/3/4 125/3/4 127/3/4
f 125/3/4 126/3/4 127/3/4
f 122/3/4 123/3/4 127/3/4
f 109/3/4 119/3/4 127/3/4
f 123/3/4 124/3/4 127/3/4
f 120/3/4 121/3/4 127/3/4
f 121/3/4 122/3/4 127/3/4
f 119/3/4 120/3/4 127/3/4
f 126/3/4 110/3/4 128/3/4
f 127/3/4 126/3/4 128/3/4
f 129/2/4 130/2/4 137/2/4
f 137/2/4 130/2/4 138/2/4
f 131/2/4 132/2/4 139/2/4
f 139/2/4 132/2/4 140/2/4
f 133/2/4 134/2/4 141/2/4
f 141/2/4 134/2/4 142/2/4
f 135/2/4 136/2/4 143/2/4
f 143/2/4 136/2/4 144/2/4
f 129/2/4 137/2/4 145/2/4
f 138/2/4 130/2/4 146/2/4
f 131/2/4 139/2/4 147/2/4
f 140/2/4 132/2/4 148/2/4
f 133/2/4 141/2/4 149/2/4
f 142/2/4 134/2/4 150/2/4
f 135/2/4 143/2/4 151/2/4
f 144/2/4 136/2/4 152/2/4
f 129/2/4 145/2/4 153/2/4
f 145/2/4 146/2/4 153/2/4
f 146/2/4 130/2/4 154/2/4
f 153/2/4 146/2/4 154/2/4
f 131/2/4 147/2/4 155/2/4
f 147/2/4 148/2/4 155/2/4
f 148/2/4 132/2/4 156/2/4
f 155/2/4 148/2/4 156/2/4
f 133/2/4 149/2/4 157/2/4
f 149/2/4 150/2/4 157/2/4
f 150/2/4 134/2/4 158/2/4
f 157/2/4 150/2/4 158/2/4
f 151/2/4 152/2/4 159/2/4
f 135/2/4 151/2/4 159/2/4
f 152/2/4 136/2/4 160/2/4
f 159/2/4 152/2/4 160/2/4
f 161/1/4 162/1/4 169/1/4
f 169/1/4 162/1/4 170/1/4
f 163/1/4 164/1/4 171/1/4
f 171/1/4 164/1/4 172/1/4
f 165/1/4 166/1/4 173/1/4
f 173/1/4 166/1/4 174/1/4
f 167/1/4 168/1/4 175/1/4
f 175/1/4 168/1/4 176/1/4
f 179/3/5 178/3/5 177/3/5
f 180/3/5 178/3/5 179/3/5
f 181/3/5 178/3/5 180/3/5
f 182/3/5 178/3/5 181/3/5
f 183/3/5 181/3/5 180/3/5
f 184/3/5 181/3/5 183/3/5
f 185/3/5 181/3/5 184/3/5
f 186/3/5 181/3/5 185/3/5
f 187/3/5 185/3/5 184/3/5
f 188/3/5 185/3/5 187/3/5
f 191/2/5 190/2/5 189/2/5
f 192/2/5 190/2/5 191/2/5
f 195/1/5 194/1/5 193/1/5
f 196/1/5 194/1/5 195/1/5
f 199/2/5 198/2/5 197/2/5
f 200/2/5 198/2/5 199/2/5
f 203/1/5 202/1/5 201/1/5
f 204/1/5 202/1/5 203/1/5
f 207/2/5 206/2/5 205/2/5
f 208/2/5 206/2/5 207/2/5
f 211/1/5 210/1/5 209/1/5
f 212/1/5 210/1/5 211/1/5
f 215/2/5 214/2/5 213/2/5
f 216/2/5 214/2/5 215/2/5
f 219/1/5 218/1/5 217/1/5
f 220/1/5 218/1/5 219/1/5
f 221/1/6 222/1/6 223/1/6
f 223/1/6 222/1/6 224/1/6
f 225/2/6 226/2/6 227/2/6
f 227/2/6 226/2/6 228/2/6
f 229/1/6 230/1/6 231/1/6
f 231/1/6 230/1/6 232/1/6
f 233/2/6 234/2/6 235/2/6
f 235/2/6 234/2/6 236/2/6
f 237/1/6 238/1/6 239/1/6
f 239/1/6 238/1/6 240/1/6
f 241/2/6 242/2/6 243/2/6
f 243/2/6 242/2/6 244/2/6
f 245/1/6 246/1/6 247/1/6
f 247/1/6 246/1/6 248/1/6
f 249/2/6 250/2/6 251/2/6
f 251/2/6 250/2/6 252/2/6
f 253/3/6 254/3/6 255/3/6
f 255/3/6 254/3/6 256/3/6
f 253/3/6 255/3/6 257/3/6
f 255/1/6 256/1/6 258/1/6
f 257/3/6 255/3/6 258/3/6
f 256/3/6 254/3/6 259/3/6
f 258/1/6 256/1/6 259/1/6
f 259/3/6 254/3/6 260/3/6
f 257/1/6 258/1/6 261/1/6
f 253/3/6 257/3/6 261/3/6
f 259/1/6 260/1/6 261/1/6
f 258/1/6 259/1/6 261/1/6
f 261/1/6 260/1/6 262/1/6
f 262/1/6 260/1/6 263/1/6
f 260/3/6 254/3/6 264/3/6
f 263/1/6 260/1/6 264/1/6
f 262/1/6 263/1/6 265/1/6
f 261/3/6 262/3/6 265/3/6
f 263/3/6 264/3/6 266/3/6
f 265/1/6 263/1/6 266/1/6
f 261/3/6 265/3/6 267/3/6
f 265/3/6 266/3/6 267/3/6
f 266/3/6 264/3/6 268/3/6
f 267/3/6 266/3/6 268/3/6
f 253/3/6 261/3/6 269/3/6
f 261/3/6 267/3/6 269/3/6
f 267/1/6 268/1/6 270/1/6
f 269/3/6 267/3/6 270/3/6
f 268/3/6 264/3/6 271/3/6
f 270/1/6 268/1/6 271/1/6
f 264/3/6 254/3/6 272/3/6
f 271/3/6 264/3/6 272/3/6
f 270/1/6 271/1/6 273/1/6
f 269/1/6 270/1/6 273/1/6
f 271/1/6 272/1/6 273/1/6
f 253/3/6 269/3/6 273/3/6
f 273/1/6 272/1/6 274/1/6
f 274/1/6 272/1/6 275/1/6
f 272/3/6 254/3/6 276/3/6
f 275/1/6 272/1/6 276/1/6
f 253/3/6 273/3/6 277/3/6
f 273/3/6 274/3/6 277/3/6
f 277/3/6 274/3/6 278/3/6
f 274/1/6 275/1/6 279/1/6
f 278/3/6 274/3/6 279/3/6
f 275/3/6 276/3/6 280/3/6
f 279/1/6 275/1/6 280/1/6
f 276/3/6 254/3/6 281/3/6
f 280/3/6 276/3/6 281/3/6
f 281/3/6 254/3/6 282/3/6
f 279/3/6 280/3/6 283/3/6
f 280/3/6 281/3/6 283/3/6
f 278/3/6 279/3/6 283/3/6
f 283/3/6 281/3/6 284/3/6
f 284/3/6 281/3/6 285/3/6
f 285/3/6 281/3/6 286/3/6
f 284/3/6 285/3/6 287/3/6
f 287/3/6 285/3/6 288/3/6
